<svg fill="none" width="800" height="800" viewBox="0 0 24 24" xmlns="http://www.w3.org/2000/svg"><path d="M15.6 8.8a4 4 0 1 0-4-4 4.005 4.005 0 0 0 4 4m0-6.4a2.4 2.4 0 1 1-2.4 2.4 2.4 2.4 0 0 1 2.4-2.4M8.4 17.6v-3.2a4.005 4.005 0 0 1 4-4h6.4a4.005 4.005 0 0 1 4 4v3.2a.8.8 0 0 1-1.6 0v-3.2a2.4 2.4 0 0 0-2.4-2.4h-6.4a2.4 2.4 0 0 0-2.4 2.4v3.2a.8.8 0 0 1-1.6 0" fill="#AAA"/><path d="M12 11a5 5 0 1 0-5-5 5.006 5.006 0 0 0 5 5m0-8a3 3 0 1 1-3 3 3 3 0 0 1 3-3M3 22v-4a5.006 5.006 0 0 1 5-5h8a5.006 5.006 0 0 1 5 5v4a1 1 0 0 1-2 0v-4a3 3 0 0 0-3-3H8a3 3 0 0 0-3 3v4a1 1 0 0 1-2 0" fill="#FFF"/></svg>