<svg width="800" height="800" viewBox="0 0 24 24" xmlns="http://www.w3.org/2000/svg"><g fill="none"><path d="M24 0v24H0V0z"/><path d="M12 2c5.523 0 10 4.477 10 10s-4.477 10-10 10S2 17.523 2 12 6.477 2 12 2m0 2a8 8 0 1 0 0 16 8 8 0 0 0 0-16m2.8 9.857a1 1 0 1 1 1.4 1.428A5.98 5.98 0 0 1 12 17a5.98 5.98 0 0 1-4.2-1.715 1 1 0 0 1 1.4-1.428A3.98 3.98 0 0 0 12 15c1.09 0 2.077-.435 2.8-1.143M8.5 8a1.5 1.5 0 1 1 0 3 1.5 1.5 0 0 1 0-3m7 0a1.5 1.5 0 1 1 0 3 1.5 1.5 0 0 1 0-3" fill="currentColor"/></g></svg>